<?xml version="1.0" encoding="UTF-8"?>
<svg id="Layer_1" data-name="Layer 1" xmlns="http://www.w3.org/2000/svg" viewBox="0 0 2000 2000">
  <defs>
    <style>
      .cls-1 {
        fill: #f5611c;
      }

      .cls-2 {
        fill: #fff;
      }
    </style>
  </defs>
  <path class="cls-2" d="M396.49,949.93h49.71l37.19,127.32,39.34-127.32h44.7l39.34,127.32,36.84-127.32h49.71l-56.51,177.39h-53.29l-38.62-120.52-38.62,120.52h-53.29l-56.51-177.39Z"/>
  <path class="cls-2" d="M710.86,876.97h47.57v91.91c11.09-15.38,27.9-23.25,49.71-23.25,39.7,0,67.24,27.54,67.24,66.88v114.8h-47.57v-101.21c0-23.25-12.88-37.55-34.33-37.55s-35.05,14.66-35.05,37.55v101.21h-47.57v-250.34Z"/>
  <path class="cls-1" d="M929.73,868.39c17.17,0,30.76,14.31,30.76,30.76s-13.59,30.4-30.76,30.4-30.76-13.95-30.76-30.4,13.59-30.76,30.76-30.76Z"/>
  <rect class="cls-2" x="906.13" y="949.93" width="47.57" height="177.39"/>
  <path class="cls-2" d="M978.01,1080.11l40.41-10.37c2.86,15.74,17.52,26.11,36.84,26.11,14.66,0,24.32-6.44,24.32-16.09s-7.15-15.02-26.11-20.39l-21.82-6.44c-31.83-9.66-47.57-26.46-47.57-52.21,0-33.26,25.75-55.08,66.16-55.08,37.91,0,66.16,19.67,73.32,50.78l-40.41,7.51c-4.65-13.59-17.52-22.53-32.54-22.89-13.23,0-21.82,7.15-21.82,16.81,0,8.94,6.79,14.31,25.75,18.95l21.82,6.08c31.47,8.94,47.92,25.39,47.92,52.57,0,33.26-27.9,56.15-68.67,56.15s-74.03-22.53-77.61-51.5Z"/>
  <path class="cls-2" d="M1147.88,876.97h47.57v145.56l66.16-72.6h53.65l-62.94,68.31,69.02,109.08h-53.29l-49.35-72.96-23.25,25.04v47.92h-47.57v-250.34Z"/>
  <path class="cls-2" d="M1337.07,949.93h47.57v19.31c11.09-15.38,27.54-23.6,49-23.6,5.36,0,10.37.36,15.74,1.07v42.2c-5.01-.71-10.01-1.43-15.38-1.43-30.4,0-49.35,17.88-49.35,45.06v94.77h-47.57v-177.39Z"/>
  <path class="cls-2" d="M1457.23,1080.11l40.41-10.37c2.86,15.74,17.52,26.11,36.84,26.11,14.66,0,24.32-6.44,24.32-16.09s-7.15-15.02-26.11-20.39l-21.82-6.44c-31.83-9.66-47.57-26.46-47.57-52.21,0-33.26,25.75-55.08,66.16-55.08,37.91,0,66.16,19.67,73.32,50.78l-40.41,7.51c-4.65-13.59-17.52-22.53-32.54-22.89-13.23,0-21.82,7.15-21.82,16.81,0,8.94,6.79,14.31,25.75,18.95l21.82,6.08c31.47,8.94,47.92,25.39,47.92,52.57,0,33.26-27.9,56.15-68.67,56.15s-74.03-22.53-77.61-51.5Z"/>
</svg>